<svg role="img" viewBox="0 0 24 24" xmlns="http://www.w3.org/2000/svg" fill="white"><title>Apple</title><path d="M12.152 6.896c-.948 0-1.896.408-2.568 1.224-.672.816-1.128 1.932-1.128 3.156 0 .204.024.408.048.612.024.204.048.408.096.612.048.204.096.384.144.588.048.18.12.36.168.528.072.204.144.408.24.612.096.204.216.408.336.588.12.204.264.384.408.564.144.18.288.36.456.504.168.144.336.288.528.408.192.12.384.216.576.312.216.096.432.168.648.216.216.048.432.072.648.072.216 0 .432-.024.648-.072.216-.048.432-.12.648-.216.192-.096.384-.192.576-.312.168-.12.336-.24.528-.408.168-.144.312-.288.456-.504.144-.18.288-.384.408-.564.12-.18.24-.384.336-.588.096-.204.168-.408.24-.612.048-.18.12-.36.168-.528.048-.18.096-.384.144-.588.048-.204.072-.408.096-.612.024-.204.048-.408.048-.612 0-1.224-.456-2.34-1.128-3.156-.672-.816-1.62-1.224-2.568-1.224zM15.396 6.18c.984.024 1.812.432 2.484 1.236.672.804 1.008 1.812 1.008 3.024 0 .204-.024.408-.048.612-.024.204-.048.384-.072.588-.264-1.2-1.008-2.208-2.232-3.024-.528-.336-1.128-.564-1.8-.684.312-.48.744-.888 1.32-1.224.216-.12.432-.216.648-.288zM9.516 2.052c.24-.12.48-.216.744-.288-.936.432-1.692 1.2-2.28 2.304-.588 1.104-.888 2.376-.888 3.816 0 .456.048.912.12 1.344.072.456.168.888.312 1.32.216-.024.432-.048.624-.048.216 0 .432.024.648.048.216.024.408.048.6.096.192.048.384.096.552.168.168.072.336.144.48.24.144.096.288.192.408.312.12.12.24.24.336.384.096.144.192.288.264.456.072.168.144.336.192.528.048.192.096.384.12.576.024.192.048.408.048.612h.024c.048-1.2.576-2.232 1.584-3.108.744-.648 1.692-1.104 2.844-1.368-1.344-1.896-3.264-3.024-5.76-3.264z"></path></svg>